<?xml version="1.0" standalone="no"?>
<!DOCTYPE svg PUBLIC "-//W3C//DTD SVG 20010904//EN"
 "http://www.w3.org/TR/2001/REC-SVG-20010904/DTD/svg10.dtd">
<svg version="1.0" xmlns="http://www.w3.org/2000/svg"
 width="260.000000pt" height="260.000000pt" viewBox="0 0 260.000000 260.000000"
 preserveAspectRatio="xMidYMid meet">
<metadata>
Created by potrace 1.11, written by Peter Selinger 2001-2013
</metadata>
<g transform="translate(0.000000,260.000000) scale(0.100000,-0.100000)"
fill="#000000" stroke="none">
<path d="M202 2518 c-53 -26 -115 -95 -130 -146 -9 -29 -12 -310 -12 -1078 0
-1024 1 -1040 21 -1084 25 -55 62 -95 114 -123 l40 -22 1043 -3 c703 -1 1056
1 1082 8 59 16 120 68 152 129 l28 53 0 1047 0 1046 -24 51 c-27 59 -90 116
-145 132 -28 9 -318 12 -1082 12 -1035 -1 -1044 -1 -1087 -22z m848 -473 l0
-245 620 0 620 0 0 -125 0 -125 -620 0 -620 0 0 -620 0 -620 -125 0 -125 0 0
620 0 620 -245 0 -245 0 0 125 0 125 245 0 245 0 0 245 0 245 125 0 125 0 0
-245z"/>
</g>
</svg>
